<svg width="1200" height="630" viewBox="0 0 1200 630" fill="none" xmlns="http://www.w3.org/2000/svg">
  <defs>
    <linearGradient id="bg" x1="120" y1="40" x2="1080" y2="630" gradientUnits="userSpaceOnUse">
      <stop offset="0" stop-color="#141022" />
      <stop offset="0.58" stop-color="#0F0F1A" />
      <stop offset="1" stop-color="#090910" />
    </linearGradient>

    <radialGradient id="glowPurple" cx="0" cy="0" r="1" gradientUnits="userSpaceOnUse" gradientTransform="translate(180 90) rotate(90) scale(240 320)">
      <stop stop-color="#8B5CF6" stop-opacity="0.28" />
      <stop offset="1" stop-color="#8B5CF6" stop-opacity="0" />
    </radialGradient>

    <radialGradient id="glowPink" cx="0" cy="0" r="1" gradientUnits="userSpaceOnUse" gradientTransform="translate(1080 120) rotate(90) scale(220 280)">
      <stop stop-color="#EC4899" stop-opacity="0.22" />
      <stop offset="1" stop-color="#EC4899" stop-opacity="0" />
    </radialGradient>

    <radialGradient id="glowCard" cx="0" cy="0" r="1" gradientUnits="userSpaceOnUse" gradientTransform="translate(920 540) rotate(90) scale(180 260)">
      <stop stop-color="#C4B5FD" stop-opacity="0.12" />
      <stop offset="1" stop-color="#C4B5FD" stop-opacity="0" />
    </radialGradient>

    <linearGradient id="accent" x1="104" y1="124" x2="620" y2="448" gradientUnits="userSpaceOnUse">
      <stop stop-color="#F0ABFC" />
      <stop offset="0.5" stop-color="#C4B5FD" />
      <stop offset="1" stop-color="#EC4899" />
    </linearGradient>

    <linearGradient id="textFade" x1="120" y1="220" x2="640" y2="380" gradientUnits="userSpaceOnUse">
      <stop stop-color="#FFFFFF" />
      <stop offset="1" stop-color="#D8CCFF" />
    </linearGradient>

    <linearGradient id="chipStroke" x1="120" y1="0" x2="420" y2="0" gradientUnits="userSpaceOnUse">
      <stop stop-color="#8B5CF6" stop-opacity="0.42" />
      <stop offset="1" stop-color="#EC4899" stop-opacity="0.2" />
    </linearGradient>

    <linearGradient id="windowStroke" x1="735" y1="110" x2="1110" y2="518" gradientUnits="userSpaceOnUse">
      <stop stop-color="#F9A8D4" stop-opacity="0.16" />
      <stop offset="0.5" stop-color="#C4B5FD" stop-opacity="0.1" />
      <stop offset="1" stop-color="#8B5CF6" stop-opacity="0.22" />
    </linearGradient>

    <pattern id="grid" width="56" height="56" patternUnits="userSpaceOnUse">
      <path d="M56 0H0V56" stroke="#8B5CF6" stroke-opacity="0.12" />
    </pattern>

    <filter id="cardShadow" x="740" y="44" width="460" height="470" filterUnits="userSpaceOnUse" color-interpolation-filters="sRGB">
      <feDropShadow dx="0" dy="24" stdDeviation="28" flood-color="#000000" flood-opacity="0.35" />
    </filter>

    <filter id="softBlur" x="-20%" y="-20%" width="140%" height="140%">
      <feGaussianBlur stdDeviation="34" />
    </filter>

    <style>
      .sans {
        font-family: "DejaVu Sans", "Arial", sans-serif;
      }

      .mono {
        font-family: "DejaVu Sans Mono", "Consolas", monospace;
      }
    </style>
  </defs>

  <rect width="1200" height="630" fill="url(#bg)" />
  <rect width="1200" height="630" fill="url(#grid)" />

  <ellipse cx="180" cy="90" rx="240" ry="220" fill="url(#glowPurple)" filter="url(#softBlur)" />
  <ellipse cx="1080" cy="120" rx="220" ry="190" fill="url(#glowPink)" filter="url(#softBlur)" />
  <ellipse cx="920" cy="540" rx="240" ry="170" fill="url(#glowCard)" filter="url(#softBlur)" />

  <text x="98" y="122" class="mono" font-size="60" font-weight="700" fill="url(#accent)">&gt;_</text>

  <text x="98" y="230" class="sans" font-size="92" font-weight="800" fill="url(#textFade)">Rama</text>
  <text x="98" y="324" class="sans" font-size="76" font-weight="750" fill="url(#textFade)">Alshamasneh</text>
  <text x="98" y="428" class="sans" font-size="74" font-weight="800" fill="url(#accent)">Portfolio</text>

  <text x="102" y="482" class="sans" font-size="30" font-weight="500" fill="#9CA3AF">
    Backend engineer focused on performant
  </text>
  <text x="102" y="522" class="sans" font-size="30" font-weight="500" fill="#9CA3AF">
    APIs, Linux systems, and clean architecture.
  </text>

  <rect x="98" y="560" width="312" height="40" rx="20" fill="#121221" fill-opacity="0.85" stroke="url(#chipStroke)" />
  <text x="254" y="587" text-anchor="middle" class="sans" font-size="19" font-weight="700" letter-spacing="0.06em" fill="#F5D0FE">BACKEND ENGINEER</text>

  <rect x="448" y="560" width="304" height="40" rx="20" fill="#121221" fill-opacity="0.85" stroke="url(#chipStroke)" />
  <text x="600" y="587" text-anchor="middle" class="sans" font-size="18" font-weight="700" letter-spacing="0.05em" fill="#E5E7EB">SOFTWARE ENGINEER</text>

  <g filter="url(#cardShadow)">
    <rect x="808" y="118" width="350" height="342" rx="28" fill="#0B0B13" fill-opacity="0.96" stroke="url(#windowStroke)" stroke-width="2" />
  </g>
  <rect x="808" y="118" width="350" height="54" rx="28" fill="#FFFFFF" fill-opacity="0.03" />
  <circle cx="850" cy="145" r="6" fill="#8B5CF6" />
  <circle cx="874" cy="145" r="6" fill="#EC4899" />
  <circle cx="898" cy="145" r="6" fill="#C4B5FD" fill-opacity="0.55" />

  <rect x="840" y="54" width="286" height="34" rx="17" fill="#141427" fill-opacity="0.92" stroke="#F9A8D4" stroke-opacity="0.18" />
  <text x="983" y="77" text-anchor="middle" class="sans" font-size="18" font-weight="700" letter-spacing="0.11em" fill="#F5D0FE">BACKEND ENGINEER</text>

  <rect x="842" y="214" width="56" height="14" rx="7" fill="#60A5FA" fill-opacity="0.92" />
  <rect x="922" y="214" width="108" height="14" rx="7" fill="#E5E7EB" fill-opacity="0.95" />
  <rect x="1046" y="214" width="56" height="14" rx="7" fill="#F59E0B" fill-opacity="0.96" />

  <rect x="842" y="258" width="54" height="14" rx="7" fill="#60A5FA" fill-opacity="0.92" />
  <rect x="920" y="258" width="118" height="14" rx="7" fill="#E5E7EB" fill-opacity="0.92" />
  <rect x="1050" y="258" width="76" height="14" rx="7" fill="#C4B5FD" fill-opacity="0.95" />

  <rect x="842" y="302" width="54" height="14" rx="7" fill="#60A5FA" fill-opacity="0.92" />
  <rect x="920" y="302" width="82" height="14" rx="7" fill="#E5E7EB" fill-opacity="0.92" />
  <rect x="1016" y="302" width="78" height="14" rx="7" fill="#C4B5FD" fill-opacity="0.95" />

  <rect x="842" y="346" width="54" height="14" rx="7" fill="#60A5FA" fill-opacity="0.92" />
  <rect x="920" y="346" width="76" height="14" rx="7" fill="#E5E7EB" fill-opacity="0.92" />
  <rect x="1010" y="346" width="84" height="14" rx="7" fill="#C4B5FD" fill-opacity="0.95" />

  <rect x="842" y="390" width="54" height="14" rx="7" fill="#60A5FA" fill-opacity="0.92" />
  <rect x="920" y="390" width="78" height="14" rx="7" fill="#E5E7EB" fill-opacity="0.92" />
  <rect x="1012" y="390" width="82" height="14" rx="7" fill="#C4B5FD" fill-opacity="0.95" />

  <rect x="842" y="426" width="76" height="14" rx="7" fill="#E5E7EB" fill-opacity="0.92" />
  <rect x="932" y="426" width="70" height="14" rx="7" fill="#C4B5FD" fill-opacity="0.95" />
  <rect x="1016" y="426" width="22" height="14" rx="7" fill="#E5E7EB" fill-opacity="0.92" />
</svg>
